<?xml version="1.0" encoding="UTF-8"?>
<svg enable-background="new 0 0 1200 700" version="1.1" viewBox="0 0 1200 700" xml:space="preserve" xmlns="http://www.w3.org/2000/svg">
<style type="text/css">
	.st0{fill:#FFFA72;}
	.st1{fill:#C7E1F3;}
	.st2{fill:#B8CFE6;}
	.st3{fill:#A9BEDA;}
	.st4{fill:#9AADCE;}
	.st5{fill:#8B9BC1;}
	.st6{fill:#7D8AB5;}
	.st7{fill:#6E79A9;}
	.st8{fill:#5F679C;}
	.st9{fill:#505690;}
	.st10{fill:#414584;}
	.st11{fill:#323377;}
	.st12{fill:#23226B;}
</style>
<path class="st0" d="m734.6 34.4c-28.7 61.7-23.3 100.4 16.3 116.1 59.3 23.5 200.3 32.9 259.3 83.9s238.7 11.6 269.4-75.9c30.7-87.6 86.1-222.5-205.8-222.5-194.6 0-307.6 32.8-339.2 98.4z"/>
<path class="st1" d="m312.4 156.2c19.4 172.8 97.2 281.2 233.2 325.1 204.1 65.8 614.2 92.2 861.7 234.9 247.5 142.8 687.1 32.4 631.6-212.7-55.4-245.1-118.5-622.8-935.7-622.8-544.8 0.1-808.4 91.9-790.8 275.5z"/>
<path class="st2" d="m344 146.1c9.1 163.6 76.9 266.1 203.3 307.6 189.6 62.3 576.3 87.2 802.9 222.4 226.6 135.1 648.5 30.7 609.2-201.3-39.3-231.9-78.7-589.4-852.1-589.4-515.6 0-770 86.9-763.3 260.7z"/>
<path class="st3" d="m376.5 135.9c0.2 154.3 58.9 251.1 176 290.2 175.7 58.8 539.2 82.3 746.1 209.8 206.8 127.5 610.2 28.9 585.1-189.9-25.2-218.8-44.1-556.1-773.7-556.1-486.5 0.1-731 82.1-733.5 246z"/>
<path class="st4" d="m409.7 125.8c-7.3 145.1 43.1 236 151.3 272.8 162.3 55.2 502.9 77.3 691 197.2 188.2 119.8 572.2 27.2 559.2-178.5s-14.2-522.7-700.1-522.7c-457.2 0-691 77.1-701.4 231.2z"/>
<path class="st5" d="m443.6 115.6c-13.7 135.8 29.2 220.9 128.7 255.4 149.3 51.7 467.1 72.4 637.6 184.6s534.4 25.5 531.9-167.1c-2.5-192.5 11.3-489.3-630.8-489.3-427.9 0-650.5 72.1-667.4 216.4z"/>
<path class="st6" d="m478.1 105.5c-18.9 126.5 17.2 205.9 108.4 238 136.8 48.2 432 67.5 585.8 172s496.8 23.7 503.3-155.7c6.4-179.4 32.7-456-565.6-456-398.9 0-609.6 67.2-631.9 201.7z"/>
<path class="st7" d="m513.2 95.3c-23.1 117.3 6.9 190.8 90 220.6 124.7 44.7 397.4 62.5 535.4 159.4s459.4 22 473.3-144.3c13.8-166.3 50.3-422.6-504.2-422.6-369.7 0-567.9 62.3-594.5 186.9z"/>
<path class="st8" d="m548.8 85.2c-26.3 108-1.8 175.7 73.5 203.2 112.9 41.1 363.4 57.6 486.3 146.8s422.2 20.3 442.1-132.9 64.4-389.3-446.4-389.3c-340.5 0-525.6 57.4-555.5 172.2z"/>
<path class="st9" d="m585 75c-28.5 98.8-8.9 160.7 58.8 185.8 101.5 37.6 329.8 52.7 438.6 134.2 108.7 81.6 385.2 18.5 409.7-121.5s75-355.9-392-355.9c-311.4 0-483.1 52.5-515.1 157.4z"/>
<path class="st10" d="m621.7 64.8c-29.8 89.5-14.6 145.6 45.8 168.3 90.5 34.1 296.8 47.7 392 121.7 95.2 73.9 348.3 16.8 376.2-110.1s82.4-322.5-340.8-322.5c-282.2 0-439.9 47.5-473.2 142.6z"/>
<path class="st11" d="m658.8 54.7c-30.3 80.2-18.8 130.5 34.4 150.9 79.8 30.6 264.2 42.8 346.6 109.1s311.6 15 341.6-98.7c30-113.8 86.6-289.1-292.8-289.1-252.9-0.1-396.1 42.5-429.8 127.8z"/>
<path class="st12" d="m696.5 44.5c-29.9 71-21.7 115.5 24.5 133.5 69.4 27 232.1 37.8 302.4 96.5 70.4 58.6 275.1 13.3 306-87.3 31-100.7 87.8-255.8-247.8-255.8-223.7 0-352.1 37.7-385.1 113.1z"/>
</svg>
